<mxfile host="app.diagrams.net" agent="Mozilla/5.0 (Windows NT 10.0; Win64; x64) AppleWebKit/537.36 (KHTML, like Gecko) Chrome/123.0.0.0 Safari/537.36 Edg/123.0.0.0" version="26.2.13">
  <diagram name="Page-1" id="h1aXrm5FS_1oXh-nC2EY">
    <mxGraphModel dx="925" dy="625" grid="1" gridSize="10" guides="1" tooltips="1" connect="1" arrows="1" fold="1" page="1" pageScale="1" pageWidth="850" pageHeight="1100" math="0" shadow="0">
      <root>
        <mxCell id="0" />
        <mxCell id="1" parent="0" />
        <mxCell id="lKuLbumpar8D76JXmIPF-4" value="&lt;span&gt;Running&lt;/span&gt;" style="ellipse;whiteSpace=wrap;html=1;aspect=fixed;fontFamily=Times New Roman;fontSize=15;" vertex="1" parent="1">
          <mxGeometry x="393" y="235" width="80" height="80" as="geometry" />
        </mxCell>
        <mxCell id="lKuLbumpar8D76JXmIPF-5" value="&lt;span&gt;Idle&lt;/span&gt;" style="ellipse;whiteSpace=wrap;html=1;aspect=fixed;fontSize=15;fontFamily=Times New Roman;" vertex="1" parent="1">
          <mxGeometry x="247" y="235" width="80" height="80" as="geometry" />
        </mxCell>
        <mxCell id="lKuLbumpar8D76JXmIPF-6" value="&lt;span&gt;Init&lt;/span&gt;" style="ellipse;whiteSpace=wrap;html=1;aspect=fixed;fontSize=15;fontFamily=Times New Roman;" vertex="1" parent="1">
          <mxGeometry x="100" y="235" width="80" height="80" as="geometry" />
        </mxCell>
        <mxCell id="lKuLbumpar8D76JXmIPF-2" value="&lt;font&gt;Error&lt;/font&gt;&lt;div&gt;&lt;font&gt;Handling&lt;/font&gt;&lt;/div&gt;" style="ellipse;whiteSpace=wrap;html=1;aspect=fixed;fontFamily=Times New Roman;fontSize=15;" vertex="1" parent="1">
          <mxGeometry x="540" y="180" width="80" height="80" as="geometry" />
        </mxCell>
        <mxCell id="lKuLbumpar8D76JXmIPF-3" value="&lt;span&gt;Terminal&lt;/span&gt;&lt;div&gt;&lt;span&gt;Status&lt;/span&gt;&lt;/div&gt;" style="ellipse;whiteSpace=wrap;html=1;aspect=fixed;fontFamily=Times New Roman;fontSize=15;" vertex="1" parent="1">
          <mxGeometry x="540" y="290" width="80" height="80" as="geometry" />
        </mxCell>
      </root>
    </mxGraphModel>
  </diagram>
</mxfile>
